<svg width="817" height="174" viewBox="0 0 817 174" fill="none" xmlns="http://www.w3.org/2000/svg">
<path fill-rule="evenodd" clip-rule="evenodd" d="M731.308 0C778.252 0 816.308 38.0558 816.308 85V89C816.308 135.944 778.252 174 731.308 174H85C73.4647 174 62.4662 171.702 52.437 167.539L18.9714 172.479C12.5275 173.43 6.7782 169.897 7.79608 165.612L14.6566 136.731C5.40607 123.124 0 106.693 0 89V85C0 38.0558 38.0558 0 84.9999 0H731.308Z" fill="#FF681F"/>
<mask id="mask0_73_16" style="mask-type:luminance" maskUnits="userSpaceOnUse" x="40" y="40" width="94" height="94">
<path d="M134 40H40V134H134V40Z" fill="white"/>
</mask>
<g mask="url(#mask0_73_16)">
<path fill-rule="evenodd" clip-rule="evenodd" d="M46.6077 46.6077C40 53.2154 40 63.8502 40 85.12V88.88C40 110.15 40 120.785 46.6077 127.392C53.2154 134 63.8502 134 85.12 134H88.88C110.15 134 120.785 134 127.392 127.392C134 120.785 134 110.15 134 88.88V85.12C134 63.8502 134 53.2154 127.392 46.6077C120.785 40 110.15 40 88.88 40H85.12C63.8502 40 53.2154 40 46.6077 46.6077ZM55.8627 68.5919C56.3718 93.0319 68.5917 107.719 90.0159 107.719H91.2303V93.7368C99.1028 94.5201 105.056 100.278 107.445 107.719H118.568C115.513 96.596 107.484 90.4468 102.471 88.0968C107.484 85.1985 114.534 78.1485 116.218 68.5919H106.113C103.92 76.3469 97.4186 83.3968 91.2303 84.0626V68.5919H81.1249V95.6951C74.8583 94.1285 66.9468 86.5302 66.5943 68.5919H55.8627Z" fill="white"/>
</g>
</svg>
