<svg width="550" height="784" viewBox="0 0 550 784" fill="none" xmlns="http://www.w3.org/2000/svg">
<rect width="550" height="784" rx="32" fill="white"/>
<path d="M188.155 374.472C186.832 374.387 186.043 374.152 185.787 373.768C185.573 373.384 185.467 372.979 185.467 372.552C185.68 371.912 185.915 371.293 186.171 370.696C186.469 370.099 186.683 369.459 186.811 368.776C186.939 368.221 187.067 367.709 187.195 367.24C187.323 366.771 187.472 366.259 187.643 365.704C187.984 364.68 188.368 363.421 188.795 361.928C189.264 360.435 189.755 358.941 190.267 357.448C190.779 355.955 191.227 354.717 191.611 353.736C191.952 352.755 192.229 351.923 192.443 351.24C192.699 350.557 192.955 349.896 193.211 349.256C193.467 348.616 193.744 347.848 194.043 346.952C194.256 346.397 194.448 345.864 194.619 345.352C194.789 344.797 194.96 344.243 195.131 343.688C195.344 343.133 195.536 342.6 195.707 342.088C195.92 341.533 196.112 340.979 196.283 340.424C196.752 339.443 197.157 338.504 197.499 337.608C197.883 336.712 198.224 335.731 198.523 334.664C198.693 334.28 198.672 334.003 198.459 333.832C198.288 333.661 198.203 333.299 198.203 332.744C198.16 332.232 198.288 331.869 198.587 331.656C198.928 331.4 199.355 331.336 199.867 331.464C200.464 331.592 201.296 331.699 202.363 331.784C203.472 331.869 204.475 331.912 205.371 331.912C206.309 331.869 206.821 331.827 206.907 331.784C207.12 331.699 207.824 331.571 209.019 331.4C210.213 331.187 211.664 330.952 213.371 330.696C215.077 330.44 216.827 330.205 218.619 329.992C220.453 329.779 222.075 329.587 223.483 329.416C223.952 329.331 224.4 329.331 224.827 329.416C225.296 329.501 225.744 329.587 226.171 329.672C226.725 329.757 227.28 330.056 227.835 330.568C228.389 331.08 228.581 331.699 228.411 332.424C228.24 332.893 227.877 333.149 227.323 333.192C226.768 333.192 226.021 333.107 225.083 332.936C224.997 332.936 224.912 333.107 224.827 333.448C224.741 333.789 224.635 334.195 224.507 334.664C224.421 335.133 224.272 335.624 224.059 336.136C223.803 336.435 223.504 337.011 223.163 337.864C222.864 338.717 222.544 339.656 222.203 340.68C221.861 341.704 221.584 342.643 221.371 343.496C221.157 344.349 221.051 344.947 221.051 345.288C220.453 346.227 220.027 347.251 219.771 348.36C219.557 349.469 219.28 350.515 218.939 351.496C218.896 351.667 218.725 352.264 218.427 353.288C218.171 354.269 217.851 355.464 217.467 356.872C217.083 358.28 216.699 359.688 216.315 361.096C215.931 362.461 215.611 363.635 215.355 364.616C215.099 365.597 214.971 366.152 214.971 366.28C214.928 367.133 214.821 368.008 214.651 368.904C214.523 369.8 214.437 370.675 214.395 371.528C214.437 371.699 214.459 371.848 214.459 371.976C214.459 372.061 214.373 372.147 214.203 372.232C213.861 372.531 213.285 372.68 212.475 372.68C211.664 372.637 211.152 372.488 210.939 372.232C210.768 371.891 210.619 371.592 210.491 371.336C210.363 371.037 210.32 370.717 210.363 370.376C210.448 369.181 210.597 367.987 210.811 366.792C211.024 365.597 211.216 364.445 211.387 363.336C211.6 362.227 211.856 361.224 212.155 360.328C212.453 359.432 212.667 358.941 212.795 358.856L214.011 354.312C214.48 353.032 214.779 352.029 214.907 351.304C215.035 350.536 215.163 349.789 215.291 349.064C215.461 348.339 215.76 347.4 216.187 346.248C216.613 345.181 216.955 344.115 217.211 343.048C217.509 341.939 217.808 340.851 218.107 339.784C218.405 338.76 218.704 337.864 219.003 337.096C219.301 336.285 219.536 335.581 219.707 334.984C219.92 334.387 220.005 333.875 219.963 333.448C219.024 333.533 218.149 333.64 217.339 333.768C216.571 333.896 215.76 334.024 214.907 334.152C214.096 334.237 213.093 334.365 211.899 334.536C211.173 334.621 210.213 334.771 209.019 334.984C207.824 335.155 206.715 335.325 205.691 335.496C204.709 335.624 204.091 335.688 203.835 335.688C203.536 335.731 203.28 335.816 203.067 335.944C202.853 336.072 202.747 336.243 202.747 336.456C202.107 337.736 201.488 339.037 200.891 340.36C200.293 341.64 199.76 342.877 199.291 344.072C198.864 345.224 198.544 346.248 198.331 347.144C198.245 347.315 198.075 347.741 197.819 348.424C197.563 349.107 197.264 349.896 196.923 350.792C196.581 351.688 196.261 352.541 195.963 353.352C195.664 354.163 195.429 354.803 195.259 355.272C195.131 355.699 195.088 355.805 195.131 355.592C194.491 357.64 193.957 359.261 193.531 360.456C193.147 361.608 192.827 362.525 192.571 363.208C192.315 363.891 192.101 364.488 191.931 365C191.76 365.512 191.589 366.131 191.419 366.856C191.163 367.539 190.949 368.243 190.779 368.968C190.608 369.693 190.437 370.419 190.267 371.144C190.224 371.357 190.16 371.592 190.075 371.848C190.032 372.104 189.947 372.637 189.819 373.448C189.648 373.789 189.435 374.045 189.179 374.216C188.965 374.429 188.624 374.515 188.155 374.472ZM222.492 372.744C222.321 372.659 222.086 372.488 221.788 372.232C221.532 371.976 221.297 371.72 221.084 371.464C220.956 371.336 220.849 371.229 220.764 371.144C220.678 371.016 220.593 370.931 220.508 370.888C220.508 370.589 220.572 370.376 220.7 370.248C220.87 370.12 221.041 369.971 221.212 369.8C221.382 369.544 221.66 369.416 222.044 369.416C222.428 369.416 222.726 369.309 222.94 369.096C223.708 368.541 224.497 367.965 225.308 367.368C226.118 366.771 226.801 366.067 227.356 365.256C227.953 364.403 228.55 363.485 229.148 362.504C229.745 361.523 230.321 360.563 230.876 359.624C231.046 359.325 231.324 358.792 231.708 358.024C232.092 357.256 232.454 356.509 232.796 355.784C233.18 355.016 233.393 354.483 233.436 354.184C233.052 354.056 232.689 353.949 232.348 353.864C232.049 353.736 231.75 353.629 231.452 353.544C231.068 352.947 230.854 352.605 230.812 352.52C230.769 352.392 230.748 351.987 230.748 351.304C230.748 350.792 231.025 350.472 231.58 350.344C232.817 350.045 233.905 349.853 234.844 349.768C235.825 349.683 236.785 349.512 237.724 349.256C238.321 349.085 239.046 349.021 239.9 349.064C240.753 349.107 241.606 349.299 242.46 349.64C242.844 349.811 243.164 350.024 243.42 350.28C243.676 350.536 243.91 350.835 244.124 351.176C244.678 351.944 244.956 352.605 244.956 353.16C244.998 353.715 244.977 354.248 244.892 354.76C244.806 355.272 244.87 355.848 245.084 356.488C244.785 357.64 244.486 358.664 244.188 359.56C243.889 360.413 243.612 361.224 243.356 361.992C243.1 362.717 242.865 363.4 242.652 364.04C242.438 364.68 242.268 365.32 242.14 365.96C241.969 366.643 241.756 367.325 241.5 368.008C241.244 368.691 241.052 369.395 240.924 370.12C240.838 370.675 240.582 371.08 240.156 371.336C239.772 371.592 239.345 371.827 238.876 372.04C238.705 372.083 238.406 372.04 237.98 371.912C237.596 371.741 237.233 371.507 236.892 371.208C236.764 370.739 236.721 370.312 236.764 369.928C236.806 369.544 236.892 369.16 237.02 368.776C237.148 368.435 237.382 367.667 237.724 366.472C238.065 365.277 238.449 363.933 238.876 362.44C239.302 360.947 239.708 359.56 240.092 358.28C240.476 357 240.732 356.104 240.86 355.592C241.073 354.909 241.137 354.397 241.052 354.056C241.009 353.715 240.945 353.395 240.86 353.096C239.964 352.755 239.345 352.648 239.004 352.776C238.705 352.861 238.321 352.947 237.852 353.032C237.638 353.203 237.468 353.395 237.34 353.608C237.212 353.821 237.126 354.035 237.084 354.248C236.614 355.485 236.209 356.467 235.868 357.192C235.569 357.917 235.27 358.579 234.972 359.176C234.673 359.731 234.332 360.349 233.948 361.032C233.606 361.715 233.158 362.653 232.604 363.848C232.262 364.616 231.836 365.32 231.324 365.96C230.854 366.6 230.428 367.283 230.044 368.008L229.34 368.904C229.382 368.904 229.212 369.075 228.828 369.416C228.444 369.757 228.06 370.099 227.676 370.44C227.334 370.781 227.164 370.952 227.164 370.952L225.18 372.488C224.966 372.659 224.604 372.744 224.092 372.744C223.58 372.744 223.046 372.744 222.492 372.744ZM248.317 370.696C248.146 370.355 247.933 370.099 247.677 369.928C247.421 369.715 247.293 369.523 247.293 369.352C247.293 369.181 247.271 369.011 247.229 368.84C247.229 368.627 247.143 368.435 246.973 368.264C246.759 368.008 246.781 367.432 247.037 366.536C247.293 365.597 247.719 364.467 248.317 363.144C248.914 361.779 249.618 360.349 250.429 358.856C250.77 358.515 251.111 358.067 251.453 357.512C251.794 356.957 252.05 356.595 252.221 356.424C252.221 356.253 252.285 356.104 252.413 355.976C252.541 355.805 252.69 355.72 252.861 355.72V355.336C252.861 355.123 253.053 354.76 253.437 354.248C253.863 353.736 254.375 353.181 254.973 352.584C255.57 351.944 256.189 351.347 256.829 350.792C257.469 350.195 258.002 349.768 258.429 349.512C259.325 348.915 260.242 348.552 261.181 348.424C262.162 348.296 262.994 348.509 263.677 349.064C263.805 349.192 264.018 349.405 264.317 349.704C264.615 350.003 264.957 350.344 265.341 350.728C265.767 351.069 266.194 351.432 266.621 351.816L268.989 353.928L267.837 357.128C267.282 358.835 267.133 360.328 267.389 361.608C267.687 362.888 268.114 363.997 268.669 364.936C268.882 365.405 269.309 365.853 269.949 366.28C270.631 366.707 271.271 366.963 271.869 367.048C272.21 367.091 272.53 367.219 272.829 367.432C273.127 367.645 273.277 367.987 273.277 368.456C273.277 368.883 273.191 369.224 273.021 369.48C272.85 369.736 272.551 369.907 272.125 369.992C270.717 370.163 269.394 369.821 268.157 368.968C266.962 368.115 265.853 366.707 264.829 364.744C264.658 364.488 264.423 364.019 264.125 363.336C263.869 362.611 263.719 362.141 263.677 361.928C263.506 362.141 263.186 362.547 262.717 363.144C262.247 363.699 261.885 364.104 261.629 364.36C258.599 367.432 255.975 369.501 253.757 370.568C251.581 371.592 249.767 371.635 248.317 370.696ZM250.621 367.112C250.621 367.411 251.069 367.411 251.965 367.112C252.903 366.771 253.906 366.173 254.973 365.32C256.423 364.083 257.874 362.717 259.325 361.224C260.818 359.731 262.013 358.344 262.909 357.064L264.317 354.76C263.89 353.779 263.421 353.117 262.909 352.776C262.439 352.392 262.034 352.2 261.693 352.2C261.138 352.2 260.306 352.712 259.197 353.736C258.13 354.76 256.978 356.125 255.741 357.832C254.503 359.539 253.33 361.416 252.221 363.464C251.794 364.317 251.41 365.149 251.069 365.96C250.77 366.728 250.621 367.112 250.621 367.112ZM276.574 372.68C276.233 372.552 275.87 372.296 275.486 371.912C275.102 371.485 274.782 370.995 274.526 370.44C274.27 369.885 274.142 369.373 274.142 368.904C274.356 368.435 274.633 367.624 274.974 366.472C275.316 365.277 275.742 363.912 276.254 362.376C276.596 361.907 276.852 361.352 277.022 360.712C277.236 360.072 277.428 359.496 277.598 358.984C277.94 358.301 278.345 357.427 278.814 356.36C279.284 355.251 279.732 354.141 280.158 353.032C280.628 351.88 281.033 350.92 281.374 350.152C281.844 349.043 282.121 348.36 282.206 348.104C282.292 347.805 282.356 347.571 282.398 347.4C282.398 347.059 282.484 346.781 282.654 346.568C282.825 346.312 282.996 346.184 283.166 346.184C283.337 346.013 283.529 345.928 283.742 345.928C283.998 345.885 284.212 345.864 284.382 345.864C284.852 345.864 285.257 346.184 285.598 346.824C285.94 347.421 286.11 347.976 286.11 348.488C286.11 349 285.918 349.725 285.534 350.664C285.193 351.56 284.788 352.499 284.318 353.48C283.892 354.461 283.529 355.315 283.23 356.04C282.932 356.765 282.846 357.192 282.974 357.32C282.974 357.32 283.273 357.192 283.87 356.936C284.468 356.637 285.108 356.232 285.79 355.72C286.26 355.464 286.772 355.144 287.326 354.76C287.881 354.376 288.414 354.013 288.926 353.672C289.438 353.288 289.865 353.053 290.206 352.968C290.718 352.627 291.252 352.307 291.806 352.008C292.361 351.667 292.724 351.411 292.894 351.24C293.62 350.899 294.153 350.792 294.494 350.92C294.878 351.048 295.262 351.368 295.646 351.88C296.116 352.435 296.201 352.925 295.902 353.352C295.604 353.736 294.9 354.269 293.79 354.952C292.894 355.507 291.806 356.168 290.526 356.936C289.289 357.704 288.18 358.387 287.198 358.984C286.26 359.581 285.726 359.944 285.598 360.072C285.598 360.072 285.769 360.392 286.11 361.032C286.452 361.672 286.793 362.248 287.134 362.76C287.476 363.443 287.838 364.083 288.222 364.68C288.649 365.235 288.862 365.619 288.862 365.832C289.204 366.728 289.63 367.475 290.142 368.072C290.654 368.627 291.23 368.989 291.87 369.16C292.553 369.288 293.236 369.203 293.918 368.904C294.772 368.563 295.39 368.456 295.774 368.584C296.201 368.712 296.5 369.032 296.67 369.544C296.841 369.885 296.884 370.141 296.798 370.312C296.756 370.44 296.478 370.76 295.966 371.272C295.156 372.083 294.324 372.595 293.47 372.808C292.66 373.021 291.913 372.957 291.23 372.616C290.804 372.616 290.313 372.445 289.758 372.104C289.204 371.72 288.521 371.101 287.71 370.248C286.942 369.395 285.982 368.2 284.83 366.664C284.83 366.493 284.745 366.259 284.574 365.96C284.446 365.619 284.297 365.299 284.126 365C283.956 364.659 283.742 364.296 283.486 363.912C283.23 363.485 283.102 363.272 283.102 363.272C283.102 363.144 283.06 363.037 282.974 362.952C282.932 362.824 282.846 362.675 282.718 362.504C282.633 362.333 282.526 362.141 282.398 361.928C281.716 361.715 281.225 361.843 280.926 362.312C280.628 362.781 280.308 363.272 279.966 363.784C279.753 364.339 279.476 365.128 279.134 366.152C278.836 367.133 278.58 368.093 278.366 369.032C278.196 369.971 278.153 370.611 278.238 370.952C278.238 371.635 278.132 372.104 277.918 372.36C277.705 372.573 277.257 372.68 276.574 372.68ZM304.621 371.144C304.28 371.229 303.832 371.272 303.277 371.272C302.723 371.229 302.232 371.165 301.805 371.08C301.421 370.952 301.229 370.824 301.229 370.696C301.229 370.483 301.123 370.376 300.909 370.376C300.909 370.376 300.803 370.291 300.589 370.12C300.419 369.949 300.141 369.779 299.757 369.608C299.373 369.011 299.181 368.371 299.181 367.688C299.181 366.963 299.373 365.832 299.757 364.296C299.885 363.229 300.291 361.992 300.973 360.584C301.699 359.133 302.573 357.661 303.597 356.168C304.621 354.675 305.688 353.331 306.797 352.136C307.949 350.941 308.995 350.067 309.933 349.512C310.531 348.915 311.256 348.595 312.109 348.552C312.963 348.509 313.773 348.701 314.541 349.128C314.968 349.341 315.395 349.683 315.821 350.152C316.248 350.621 316.653 351.133 317.037 351.688C317.421 352.243 317.741 352.797 317.997 353.352C318.125 353.821 318.189 354.248 318.189 354.632C318.232 354.973 318.232 355.4 318.189 355.912C318.189 356.424 318.125 357.192 317.997 358.216C317.784 358.984 317.592 359.923 317.421 361.032C317.293 362.141 317.229 363.101 317.229 363.912C317.144 364.723 317.229 365.299 317.485 365.64C317.784 365.981 318.211 366.003 318.765 365.704C319.277 365.448 319.768 365.341 320.237 365.384C320.707 365.384 321.069 365.512 321.325 365.768C321.624 366.024 321.773 366.408 321.773 366.92C321.773 367.432 321.517 367.965 321.005 368.52C320.536 369.032 319.939 369.48 319.213 369.864C318.531 370.205 317.869 370.376 317.229 370.376C316.76 370.376 316.312 370.099 315.885 369.544C315.459 368.947 315.075 368.243 314.733 367.432C314.435 366.579 314.157 365.768 313.901 365L313.517 363.528L310.765 366.152C310.211 366.749 309.656 367.304 309.101 367.816C308.589 368.285 308.269 368.627 308.141 368.84C307.928 369.224 307.523 369.608 306.925 369.992C306.371 370.376 305.603 370.76 304.621 371.144ZM304.813 367.368C305.539 366.941 306.371 366.323 307.309 365.512C308.248 364.659 309.165 363.741 310.061 362.76C310.957 361.736 311.704 360.797 312.301 359.944C313.027 358.963 313.581 358.045 313.965 357.192C314.349 356.339 314.627 355.528 314.797 354.76C314.627 354.291 314.349 353.8 313.965 353.288C313.581 352.733 313.24 352.435 312.941 352.392C312.003 352.392 311 352.989 309.933 354.184C308.909 355.336 307.907 356.595 306.925 357.96C306.755 358.173 306.52 358.515 306.221 358.984C305.923 359.453 305.624 359.901 305.325 360.328C305.069 360.712 304.899 360.968 304.813 361.096C304.685 361.267 304.429 361.757 304.045 362.568C303.704 363.336 303.363 364.125 303.021 364.936C302.68 365.704 302.509 366.216 302.509 366.472C302.509 366.728 302.531 367.005 302.573 367.304C302.659 367.603 302.872 367.795 303.213 367.88C303.555 367.965 304.088 367.795 304.813 367.368ZM327.877 369.864C327.407 369.565 326.981 369.181 326.597 368.712C326.213 368.2 326.021 367.56 326.021 366.792C326.021 366.365 326.106 365.64 326.277 364.616C326.447 363.592 326.682 362.44 326.981 361.16C327.279 359.88 327.578 358.685 327.877 357.576C328.303 356.808 328.666 356.04 328.965 355.272C329.263 354.504 329.413 354.035 329.413 353.864C329.498 353.352 329.605 352.755 329.733 352.072C329.903 351.389 330.074 350.771 330.245 350.216C330.415 349.661 330.543 349.341 330.629 349.256C330.842 349.043 331.098 348.915 331.397 348.872C331.695 348.787 331.994 348.829 332.293 349C332.634 349.128 332.89 349.405 333.061 349.832C333.53 350.344 333.765 350.963 333.765 351.688C333.765 352.371 333.53 353.395 333.061 354.76C332.677 355.613 332.293 356.616 331.909 357.768C331.525 358.92 331.183 359.987 330.885 360.968C330.629 361.907 330.479 362.547 330.437 362.888L329.157 363.272C329.882 362.589 330.565 361.885 331.205 361.16C331.845 360.392 332.314 359.795 332.613 359.368C333.338 358.387 333.957 357.576 334.469 356.936C335.023 356.253 335.727 355.443 336.581 354.504C337.434 353.523 338.266 352.925 339.077 352.712C339.93 352.456 340.591 352.328 341.061 352.328C341.999 352.499 342.746 352.989 343.301 353.8C343.898 354.568 344.282 355.72 344.453 357.256C344.453 357.853 344.389 358.557 344.261 359.368C344.175 360.179 344.133 360.584 344.133 360.584C344.133 360.584 344.474 360.136 345.157 359.24C345.882 358.344 346.842 357.363 348.037 356.296C348.847 355.699 349.637 355.357 350.405 355.272C351.173 355.144 351.855 355.4 352.453 356.04C353.562 356.637 354.287 357.555 354.629 358.792C354.97 359.987 355.055 361.523 354.885 363.4C354.757 364.509 354.735 365.341 354.821 365.896C354.906 366.408 355.034 366.92 355.205 367.432C355.546 367.603 355.61 367.965 355.397 368.52C355.183 369.032 354.927 369.288 354.629 369.288C354.202 369.288 353.711 369.203 353.157 369.032C352.645 368.861 352.175 368.584 351.749 368.2C351.365 367.773 351.173 367.197 351.173 366.472V362.504C351.173 361.565 351.13 360.797 351.045 360.2C351.002 359.603 350.895 359.24 350.725 359.112C350.255 358.856 349.573 359.133 348.677 359.944C347.781 360.755 346.821 361.843 345.797 363.208C344.773 364.573 343.813 365.981 342.917 367.432C342.106 368.755 341.594 369.523 341.381 369.736C341.21 369.907 340.89 369.843 340.421 369.544C339.482 369.245 338.885 368.84 338.629 368.328C338.415 367.773 338.394 367.155 338.565 366.472C338.778 365.747 339.034 364.765 339.333 363.528C339.674 362.291 339.994 361.096 340.293 359.944C340.591 358.749 340.783 357.896 340.869 357.384C340.698 357.043 340.399 356.936 339.973 357.064C339.589 357.149 339.183 357.341 338.757 357.64C338.245 357.981 337.626 358.621 336.901 359.56C336.175 360.499 335.429 361.587 334.661 362.824C334.149 363.635 333.615 364.445 333.061 365.256C332.506 366.024 331.994 366.707 331.525 367.304C331.055 367.901 330.65 368.349 330.309 368.648C329.711 369.587 329.306 370.099 329.093 370.184C328.879 370.269 328.474 370.163 327.877 369.864ZM123.845 453.296C122.607 453.509 121.477 453.445 120.453 453.104C119.429 452.72 118.597 452.101 117.957 451.248C117.359 450.352 117.061 449.221 117.061 447.856C116.933 446.576 117.082 445.104 117.509 443.44C117.935 441.733 118.554 440.027 119.365 438.32C120.218 436.613 121.135 435.141 122.117 433.904C122.97 432.88 123.823 431.941 124.677 431.088C125.53 430.235 126.298 429.659 126.981 429.36C127.578 429.104 128.133 428.955 128.645 428.912C129.199 428.827 129.647 428.784 129.989 428.784C130.671 428.955 131.397 429.275 132.165 429.744C132.975 430.171 133.381 430.64 133.381 431.152C133.381 431.152 133.423 431.216 133.509 431.344C133.637 431.429 133.701 431.472 133.701 431.472C133.957 431.472 134.17 431.749 134.341 432.304C134.554 432.859 134.682 433.499 134.725 434.224C134.767 434.907 134.661 435.483 134.405 435.952C134.234 436.763 133.935 437.467 133.509 438.064C133.082 438.661 132.698 438.96 132.357 438.96C132.186 438.96 132.015 438.981 131.845 439.024C131.717 439.024 131.653 439.131 131.653 439.344C131.653 439.557 131.525 439.643 131.269 439.6C131.055 439.557 130.821 439.429 130.565 439.216C130.309 438.96 130.117 438.661 129.989 438.32C129.989 438.107 130.074 437.744 130.245 437.232C130.415 436.72 130.586 436.059 130.757 435.248C131.013 434.053 130.991 433.285 130.693 432.944C130.394 432.56 129.818 432.539 128.965 432.88C127.898 433.477 126.874 434.309 125.893 435.376C124.954 436.443 124.079 437.829 123.269 439.536C122.458 441.2 121.733 443.291 121.093 445.808C120.837 446.789 120.73 447.643 120.773 448.368C120.858 449.093 120.965 449.477 121.093 449.52C121.69 449.691 122.501 449.733 123.525 449.648C124.549 449.52 125.295 449.328 125.765 449.072C126.447 448.731 127.215 448.283 128.069 447.728C128.922 447.131 129.669 446.597 130.309 446.128C130.522 446 130.778 445.787 131.077 445.488C131.375 445.189 131.695 444.955 132.037 444.784C132.378 444.272 132.677 443.973 132.933 443.888C133.189 443.803 133.573 443.76 134.085 443.76C134.426 443.845 134.746 443.973 135.045 444.144C135.343 444.315 135.535 444.485 135.621 444.656C135.749 444.827 135.685 444.976 135.429 445.104C135.258 445.104 135.151 445.168 135.109 445.296C135.109 445.381 135.109 445.424 135.109 445.424C135.194 445.595 135.002 445.957 134.533 446.512C134.106 447.024 133.551 447.6 132.869 448.24C132.186 448.88 131.525 449.435 130.885 449.904C130.287 450.331 129.861 450.544 129.605 450.544C129.178 450.544 128.965 450.672 128.965 450.928C128.965 451.013 128.645 451.227 128.005 451.568C127.407 451.909 126.703 452.251 125.893 452.592C125.125 452.933 124.442 453.168 123.845 453.296ZM140.387 453.68C140.045 453.552 139.683 453.296 139.299 452.912C138.915 452.485 138.595 451.995 138.339 451.44C138.083 450.885 137.955 450.373 137.955 449.904C138.168 449.435 138.445 448.624 138.787 447.472C139.128 446.277 139.555 444.912 140.067 443.376C140.408 442.907 140.664 442.352 140.835 441.712C141.048 441.072 141.24 440.496 141.411 439.984C141.752 439.301 142.157 438.427 142.627 437.36C143.096 436.251 143.544 435.141 143.971 434.032C144.44 432.88 144.845 431.92 145.187 431.152C145.656 430.043 145.933 429.36 146.019 429.104C146.104 428.805 146.168 428.571 146.211 428.4C146.211 428.059 146.296 427.781 146.467 427.568C146.637 427.312 146.808 427.184 146.979 427.184C147.149 427.013 147.341 426.928 147.555 426.928C147.811 426.885 148.024 426.864 148.195 426.864C148.664 426.864 149.069 427.184 149.411 427.824C149.752 428.421 149.923 428.976 149.923 429.488C149.923 430 149.731 430.725 149.347 431.664C149.005 432.56 148.6 433.499 148.131 434.48C147.704 435.461 147.341 436.315 147.043 437.04C146.744 437.765 146.659 438.192 146.787 438.32C146.787 438.32 147.085 438.192 147.683 437.936C148.28 437.637 148.92 437.232 149.603 436.72C150.072 436.464 150.584 436.144 151.139 435.76C151.693 435.376 152.227 435.013 152.739 434.672C153.251 434.288 153.677 434.053 154.019 433.968C154.531 433.627 155.064 433.307 155.619 433.008C156.173 432.667 156.536 432.411 156.707 432.24C157.432 431.899 157.965 431.792 158.307 431.92C158.691 432.048 159.075 432.368 159.459 432.88C159.928 433.435 160.013 433.925 159.715 434.352C159.416 434.736 158.712 435.269 157.603 435.952C156.707 436.507 155.619 437.168 154.339 437.936C153.101 438.704 151.992 439.387 151.011 439.984C150.072 440.581 149.539 440.944 149.411 441.072C149.411 441.072 149.581 441.392 149.923 442.032C150.264 442.672 150.605 443.248 150.947 443.76C151.288 444.443 151.651 445.083 152.035 445.68C152.461 446.235 152.675 446.619 152.675 446.832C153.016 447.728 153.443 448.475 153.955 449.072C154.467 449.627 155.043 449.989 155.683 450.16C156.365 450.288 157.048 450.203 157.731 449.904C158.584 449.563 159.203 449.456 159.587 449.584C160.013 449.712 160.312 450.032 160.483 450.544C160.653 450.885 160.696 451.141 160.611 451.312C160.568 451.44 160.291 451.76 159.779 452.272C158.968 453.083 158.136 453.595 157.283 453.808C156.472 454.021 155.725 453.957 155.043 453.616C154.616 453.616 154.125 453.445 153.571 453.104C153.016 452.72 152.333 452.101 151.523 451.248C150.755 450.395 149.795 449.2 148.643 447.664C148.643 447.493 148.557 447.259 148.387 446.96C148.259 446.619 148.109 446.299 147.939 446C147.768 445.659 147.555 445.296 147.299 444.912C147.043 444.485 146.915 444.272 146.915 444.272C146.915 444.144 146.872 444.037 146.787 443.952C146.744 443.824 146.659 443.675 146.531 443.504C146.445 443.333 146.339 443.141 146.211 442.928C145.528 442.715 145.037 442.843 144.739 443.312C144.44 443.781 144.12 444.272 143.779 444.784C143.565 445.339 143.288 446.128 142.947 447.152C142.648 448.133 142.392 449.093 142.179 450.032C142.008 450.971 141.965 451.611 142.051 451.952C142.051 452.635 141.944 453.104 141.731 453.36C141.517 453.573 141.069 453.68 140.387 453.68ZM167.41 453.04C166.855 453.04 166.407 452.933 166.066 452.72C165.767 452.507 165.383 452.208 164.914 451.824C164.103 450.971 163.527 450.16 163.186 449.392C162.844 448.581 162.738 447.813 162.866 447.088C162.994 446.747 163.036 446.427 162.994 446.128C162.994 445.787 162.994 445.616 162.994 445.616C162.78 445.403 162.716 445.275 162.802 445.232C162.887 445.147 162.972 445.019 163.058 444.848C163.314 444.848 163.399 444.613 163.314 444.144C163.228 443.803 163.399 443.056 163.826 441.904C164.252 440.752 164.786 439.664 165.426 438.64C165.682 438.213 166.066 437.659 166.578 436.976C167.09 436.251 167.644 435.547 168.242 434.864C168.882 434.139 169.458 433.563 169.97 433.136C171.036 432.24 171.975 431.579 172.786 431.152C173.596 430.725 174.471 430.405 175.41 430.192C176.348 429.979 176.988 429.872 177.33 429.872C177.714 429.872 178.226 430.213 178.866 430.896C179.847 431.323 180.551 431.835 180.978 432.432C181.447 433.029 181.746 433.904 181.874 435.056C182.002 436.336 181.895 437.808 181.554 439.472C181.255 441.093 180.252 443.12 178.546 445.552C177.479 447.088 176.498 448.24 175.602 449.008C174.706 449.733 173.639 450.459 172.402 451.184C171.506 451.781 170.695 452.229 169.97 452.528C169.244 452.784 168.391 452.955 167.41 453.04ZM173.554 446.256C174.578 445.104 175.388 444.016 175.986 442.992C176.626 441.968 177.223 440.667 177.778 439.088C177.948 438.619 178.055 438.043 178.098 437.36C178.14 436.635 178.119 435.973 178.034 435.376C177.991 434.736 177.842 434.373 177.586 434.288C177.074 433.989 176.455 433.904 175.73 434.032C175.004 434.117 174.215 434.523 173.362 435.248C172.039 436.357 170.887 437.744 169.906 439.408C168.924 441.029 167.964 442.885 167.026 444.976C166.386 446.512 166.236 447.749 166.578 448.688C166.962 449.584 167.751 449.904 168.946 449.648C170.183 449.349 171.719 448.219 173.554 446.256ZM182.74 468.272C182.442 468.144 182.122 467.931 181.78 467.632C181.439 467.333 181.162 466.992 180.948 466.608C180.735 466.267 180.628 465.968 180.628 465.712C180.628 465.456 180.735 464.773 180.948 463.664C181.162 462.597 181.439 461.275 181.78 459.696C182.164 458.16 182.57 456.581 182.996 454.96C183.466 453.381 183.935 451.973 184.404 450.736C184.49 450.523 184.767 449.819 185.236 448.624C185.748 447.387 186.239 445.893 186.708 444.144C187.05 443.035 187.498 441.776 188.052 440.368C188.607 438.96 189.183 437.552 189.78 436.144C190.378 434.693 190.868 433.413 191.252 432.304C191.636 431.195 191.956 430.299 192.212 429.616C192.511 428.891 192.682 428.443 192.724 428.272C192.81 428.016 192.938 427.803 193.108 427.632C193.322 427.419 193.535 427.248 193.748 427.12C193.962 426.949 194.132 426.843 194.26 426.8C195.028 426.587 195.69 426.907 196.244 427.76C196.458 428.144 196.5 428.592 196.372 429.104C196.244 429.616 196.01 430.256 195.668 431.024L195.22 432.304L197.524 431.792C197.908 431.792 198.378 431.813 198.932 431.856C199.53 431.856 200.106 431.856 200.66 431.856C201.215 431.856 201.62 431.899 201.876 431.984C202.9 432.027 203.604 432.219 203.988 432.56C204.415 432.901 204.778 433.349 205.076 433.904C205.29 434.117 205.546 434.416 205.844 434.8C206.143 435.141 206.314 435.483 206.356 435.824C206.527 436.549 206.527 437.339 206.356 438.192C206.228 439.003 205.972 439.813 205.588 440.624C205.247 441.435 204.778 442.181 204.18 442.864C203.626 443.504 203.028 444.037 202.388 444.464C201.962 444.635 201.578 444.827 201.236 445.04C200.895 445.211 200.724 445.296 200.724 445.296C200.682 445.509 200.212 445.851 199.316 446.32C198.42 446.747 197.396 447.152 196.244 447.536C195.092 447.92 194.09 448.176 193.236 448.304C192.938 448.347 192.511 448.389 191.956 448.432C191.402 448.475 190.975 448.411 190.676 448.24C190.207 448.155 189.887 448.112 189.716 448.112C189.546 448.112 189.46 448.197 189.46 448.368C189.418 448.453 189.119 449.349 188.564 451.056C188.01 452.763 187.434 454.747 186.836 457.008C186.026 459.483 185.364 461.445 184.852 462.896C184.34 464.389 183.935 465.499 183.636 466.224C183.38 466.949 183.188 467.44 183.06 467.696C182.932 467.995 182.826 468.187 182.74 468.272ZM190.74 444.656C190.868 444.912 191.274 444.997 191.956 444.912C192.682 444.784 193.535 444.528 194.516 444.144C195.54 443.717 196.543 443.248 197.524 442.736C198.506 442.181 199.316 441.627 199.956 441.072C200.895 440.005 201.663 439.024 202.26 438.128C202.858 437.189 202.943 436.571 202.516 436.272C202.047 435.589 201.172 435.269 199.892 435.312C198.612 435.355 197.034 435.888 195.156 436.912C194.431 437.168 193.876 437.509 193.492 437.936C193.151 438.32 192.852 438.811 192.596 439.408C192.34 440.005 192.02 440.731 191.636 441.584C191.252 442.523 190.996 443.227 190.868 443.696C190.74 444.165 190.698 444.485 190.74 444.656ZM216.464 451.568C215.568 451.739 214.992 451.803 214.736 451.76C214.522 451.675 214.181 451.419 213.712 450.992C213.029 450.651 212.453 450.224 211.984 449.712C211.557 449.2 211.237 448.667 211.024 448.112C210.853 447.515 210.789 447.024 210.832 446.64C210.96 445.147 211.322 443.547 211.92 441.84C212.517 440.133 213.242 438.491 214.096 436.912C214.949 435.333 215.866 433.989 216.848 432.88C217.872 431.728 218.853 430.981 219.792 430.64C220.645 430.299 221.456 430.171 222.224 430.256C222.992 430.341 223.546 430.747 223.888 431.472C224.528 432.709 224.378 433.499 223.44 433.84C223.312 433.84 223.162 433.904 222.992 434.032C222.821 434.117 222.736 434.245 222.736 434.416C222.906 434.501 223.376 434.523 224.144 434.48C224.912 434.395 225.68 434.267 226.448 434.096C227.258 433.883 227.792 433.669 228.048 433.456C228.304 433.328 228.496 433.264 228.624 433.264C228.752 433.264 229.072 433.307 229.584 433.392C230.309 433.605 230.672 433.861 230.672 434.16C230.672 434.331 230.736 434.501 230.864 434.672C230.992 434.8 231.141 434.864 231.312 434.864C231.61 434.907 231.568 435.099 231.184 435.44C230.842 435.781 230.245 436.251 229.392 436.848C228.581 437.36 228.069 437.701 227.856 437.872C227.685 438 227.664 438.299 227.792 438.768C228.133 439.579 228.154 440.517 227.856 441.584C227.557 442.651 227.024 443.739 226.256 444.848C225.488 445.957 224.549 447.003 223.44 447.984C222.373 448.923 221.221 449.733 219.984 450.416C218.789 451.056 217.616 451.44 216.464 451.568ZM215.376 448.752C215.546 448.752 215.845 448.667 216.272 448.496C216.698 448.283 217.04 448.112 217.296 447.984C217.466 447.813 217.68 447.621 217.936 447.408C218.234 447.152 218.469 447.003 218.64 446.96C218.81 446.96 219.024 446.896 219.28 446.768C219.536 446.597 219.898 446.277 220.368 445.808C220.837 445.296 221.456 444.549 222.224 443.568C223.077 442.629 223.738 441.776 224.208 441.008C224.677 440.197 224.805 439.451 224.592 438.768C224.549 438.597 224.421 438.491 224.208 438.448C224.037 438.405 223.802 438.299 223.504 438.128C223.077 438.128 222.672 438.021 222.288 437.808C221.946 437.552 221.541 437.232 221.072 436.848L220.048 435.568L218.96 436.656C218.277 437.339 217.552 438.363 216.784 439.728C216.058 441.051 215.44 442.416 214.928 443.824C214.416 445.189 214.117 446.277 214.032 447.088C213.989 447.728 214.096 448.155 214.352 448.368C214.608 448.581 214.949 448.709 215.376 448.752ZM249.726 452.592C249.214 452.507 248.809 452.272 248.51 451.888C248.254 451.461 247.892 451.077 247.422 450.736C247.422 450.267 247.529 449.52 247.742 448.496C247.998 447.429 248.297 446.384 248.638 445.36C248.98 444.293 249.257 443.525 249.47 443.056C249.641 441.947 249.918 440.88 250.302 439.856C250.729 438.832 251.07 437.829 251.326 436.848C251.54 435.995 251.732 435.184 251.902 434.416C252.116 433.648 252.329 432.901 252.542 432.176C252.756 431.621 252.862 431.237 252.862 431.024C252.862 430.768 252.905 430.576 252.99 430.448C253.118 430.277 253.438 430.064 253.95 429.808C254.42 429.979 254.846 430.085 255.23 430.128C255.657 430.128 256.041 430.021 256.382 429.808C256.425 429.765 256.745 429.765 257.342 429.808C257.982 429.808 258.686 429.808 259.454 429.808C260.222 429.808 260.798 429.787 261.182 429.744C261.78 429.701 262.356 429.765 262.91 429.936C263.465 430.107 264.062 430.192 264.702 430.192C265.513 430.491 266.26 430.832 266.942 431.216C267.625 431.6 268.158 432.069 268.542 432.624C268.969 433.136 269.161 433.797 269.118 434.608C269.033 435.248 268.99 435.909 268.99 436.592C268.99 437.275 268.82 437.915 268.478 438.512C268.436 438.939 268.222 439.643 267.838 440.624C267.454 441.563 267.07 442.565 266.686 443.632C266.345 444.656 266.132 445.509 266.046 446.192C266.004 446.491 265.876 446.789 265.662 447.088C265.492 447.344 265.428 447.643 265.47 447.984C265.513 448.411 265.449 448.944 265.278 449.584C265.15 450.181 264.937 450.651 264.638 450.992C264.254 451.419 263.785 451.589 263.23 451.504C262.676 451.376 262.185 451.12 261.758 450.736C261.374 450.309 261.204 449.84 261.246 449.328C261.246 448.816 261.268 448.197 261.31 447.472C261.396 446.704 261.46 446.043 261.502 445.488C261.801 445.189 261.95 444.912 261.95 444.656C261.993 444.357 262.036 444.059 262.078 443.76C262.462 442.864 262.846 441.733 263.23 440.368C263.657 438.96 263.998 437.616 264.254 436.336C264.51 435.056 264.553 434.139 264.382 433.584C263.7 433.584 262.804 433.627 261.694 433.712C260.585 433.755 259.561 433.819 258.622 433.904C257.726 433.947 257.236 433.968 257.15 433.968C256.98 434.011 256.83 434.117 256.702 434.288C256.574 434.416 256.51 434.544 256.51 434.672C256.34 435.739 256.041 436.784 255.614 437.808C255.188 438.789 254.868 439.813 254.654 440.88C254.612 441.179 254.462 441.691 254.206 442.416C253.95 443.099 253.652 443.867 253.31 444.72C253.012 445.531 252.734 446.341 252.478 447.152C252.222 447.92 252.094 448.539 252.094 449.008C251.924 449.307 251.796 449.648 251.71 450.032C251.625 450.416 251.582 450.907 251.582 451.504C251.54 451.845 251.369 452.08 251.07 452.208C250.772 452.336 250.324 452.464 249.726 452.592ZM279.208 453.616C278.653 453.659 278.205 453.616 277.864 453.488C277.522 453.317 277.096 453.083 276.584 452.784C275.645 452.059 274.941 451.333 274.472 450.608C274.045 449.84 273.853 449.093 273.896 448.368C273.981 447.984 273.981 447.643 273.896 447.344C273.853 447.045 273.832 446.896 273.832 446.896C273.576 446.683 273.49 446.555 273.576 446.512C273.661 446.427 273.725 446.299 273.768 446.128C274.109 446.043 274.152 445.808 273.896 445.424C273.768 445.083 273.832 444.315 274.088 443.12C274.386 441.883 274.77 440.731 275.24 439.664C275.453 439.195 275.752 438.576 276.136 437.808C276.562 437.04 277.032 436.272 277.544 435.504C278.056 434.693 278.525 434.053 278.952 433.584C279.89 432.517 280.722 431.728 281.448 431.216C282.216 430.661 283.069 430.213 284.008 429.872C284.861 429.531 285.48 429.339 285.864 429.296C286.248 429.253 286.781 429.509 287.464 430.064C288.488 430.363 289.256 430.789 289.768 431.344C290.322 431.856 290.749 432.667 291.048 433.776C291.389 435.013 291.496 436.485 291.368 438.192C291.282 439.856 290.557 442.011 289.192 444.656C288.381 446.32 287.57 447.579 286.76 448.432C285.992 449.285 285.053 450.181 283.944 451.12C283.133 451.803 282.386 452.336 281.704 452.72C281.021 453.104 280.189 453.403 279.208 453.616ZM284.328 446C285.181 444.72 285.842 443.547 286.312 442.48C286.824 441.371 287.229 439.984 287.528 438.32C287.613 437.851 287.634 437.275 287.592 436.592C287.549 435.867 287.442 435.205 287.272 434.608C287.144 434.011 286.952 433.691 286.696 433.648C286.141 433.435 285.522 433.435 284.84 433.648C284.157 433.819 283.41 434.331 282.6 435.184C281.874 436.037 281.213 436.997 280.616 438.064C280.061 439.131 279.549 440.304 279.08 441.584C278.61 442.864 278.162 444.229 277.736 445.68C277.309 447.301 277.33 448.539 277.8 449.392C278.312 450.245 279.144 450.459 280.296 450.032C281.448 449.563 282.792 448.219 284.328 446ZM296.33 453.68C295.818 453.68 295.37 453.616 294.986 453.488C294.645 453.317 294.368 453.104 294.154 452.848C293.984 452.549 293.813 452.251 293.642 451.952C293.472 451.611 293.322 451.248 293.194 450.864C293.28 450.523 293.472 450.181 293.77 449.84C294.069 449.499 294.474 449.477 294.986 449.776C295.072 449.776 295.157 449.819 295.242 449.904C295.328 449.989 295.434 450.075 295.562 450.16C297.141 449.435 298.421 448.496 299.402 447.344C300.426 446.149 301.408 444.827 302.346 443.376C301.621 443.163 300.896 442.821 300.17 442.352C299.488 441.883 298.997 441.392 298.698 440.88C298.272 440.197 297.994 439.387 297.866 438.448C297.738 437.509 297.632 436.997 297.546 436.912C297.93 436.059 298.165 435.333 298.25 434.736C298.378 434.139 298.549 433.563 298.762 433.008C298.976 432.411 299.381 431.728 299.978 430.96C300.448 430.363 301.024 429.808 301.706 429.296C302.389 428.741 303.05 428.293 303.69 427.952C304.33 427.611 304.8 427.44 305.098 427.44C305.568 427.611 306.016 427.589 306.442 427.376C306.869 427.163 307.296 427.141 307.722 427.312C307.893 427.355 308.042 427.376 308.17 427.376C308.341 427.333 308.469 427.333 308.554 427.376C309.621 427.589 310.56 427.888 311.37 428.272C312.181 428.656 312.714 429.36 312.97 430.384C312.757 431.28 312.522 432.176 312.266 433.072C312.053 433.925 311.712 434.779 311.242 435.632C310.816 436.443 310.389 437.296 309.962 438.192C309.578 439.045 309.088 439.856 308.49 440.624L308.618 441.008C309.088 441.093 309.664 441.2 310.346 441.328C311.072 441.413 311.456 441.456 311.498 441.456C311.968 441.584 312.373 441.797 312.714 442.096C313.098 442.352 313.504 442.651 313.93 442.992C313.973 443.163 313.973 443.333 313.93 443.504C313.888 443.675 313.802 443.867 313.674 444.08C313.205 445.019 312.714 445.979 312.202 446.96C311.69 447.899 311.2 448.859 310.73 449.84C310.56 450.267 310.41 450.8 310.282 451.44C310.154 452.08 309.984 452.592 309.77 452.976C309.386 453.36 309.13 453.595 309.002 453.68C308.917 453.723 308.832 453.701 308.746 453.616C308.661 453.531 308.426 453.488 308.042 453.488C307.445 453.36 307.04 453.04 306.826 452.528C306.741 452.229 306.613 451.952 306.442 451.696C306.314 451.44 306.293 451.141 306.378 450.8C306.464 450.544 306.549 450.309 306.634 450.096C306.72 449.84 306.826 449.605 306.954 449.392C307.296 448.709 307.594 448.027 307.85 447.344C308.106 446.661 308.384 446 308.682 445.36C308.853 445.189 308.938 444.955 308.938 444.656H308.49C308.234 444.613 307.936 444.571 307.594 444.528C307.296 444.443 306.954 444.379 306.57 444.336C306.357 444.507 306.101 444.699 305.802 444.912C305.504 445.083 305.269 445.403 305.098 445.872C304.629 446.384 304.181 446.96 303.754 447.6C303.37 448.197 302.901 448.773 302.346 449.328C301.792 449.883 301.237 450.437 300.682 450.992C300.17 451.547 299.594 452.101 298.954 452.656C298.016 453.339 297.141 453.68 296.33 453.68ZM304.01 440.368C304.224 440.325 304.522 440.069 304.906 439.6C305.333 439.088 305.76 438.533 306.186 437.936C306.656 437.296 307.061 436.72 307.402 436.208C307.744 435.653 307.936 435.312 307.978 435.184C307.978 435.269 308.064 435.077 308.234 434.608C308.405 434.139 308.597 433.584 308.81 432.944C309.066 432.304 309.301 431.707 309.514 431.152C309.728 430.597 309.834 430.299 309.834 430.256C309.28 429.872 308.832 429.68 308.49 429.68C308.149 429.68 307.744 429.765 307.274 429.936C305.696 430.363 304.394 431.088 303.37 432.112C302.346 433.093 301.6 434.373 301.13 435.952C300.789 437.403 300.874 438.619 301.386 439.6C301.941 440.539 302.816 440.795 304.01 440.368ZM320.284 444.016C320.327 443.333 320.455 442.48 320.668 441.456C320.882 440.432 321.074 439.451 321.244 438.512C321.458 437.573 321.522 436.912 321.436 436.528C321.266 436.315 321.074 436.123 320.86 435.952C320.647 435.781 320.434 435.611 320.22 435.44C320.306 434.971 320.391 434.544 320.476 434.16C320.604 433.776 320.924 433.456 321.436 433.2L321.884 433.392C322.012 433.349 322.14 433.307 322.268 433.264C322.396 433.179 322.503 433.115 322.588 433.072C323.015 432.304 323.399 431.472 323.74 430.576C324.082 429.637 324.38 428.763 324.636 427.952C324.85 427.227 325.17 426.395 325.596 425.456C326.023 424.517 326.45 423.749 326.876 423.152C327.132 422.811 327.346 422.491 327.516 422.192C327.687 421.851 327.858 421.509 328.028 421.168C328.412 420.4 328.946 419.568 329.628 418.672C330.311 417.733 331.058 416.859 331.868 416.048C332.722 415.195 333.511 414.555 334.236 414.128C334.962 413.659 335.58 413.403 336.092 413.36C336.604 413.275 337.266 413.211 338.076 413.168C338.503 413.424 339.015 413.851 339.612 414.448C340.252 415.045 340.572 415.6 340.572 416.112C340.572 416.539 340.572 417.008 340.572 417.52C340.572 417.989 340.466 418.416 340.252 418.8C340.295 419.099 340.274 419.419 340.188 419.76C340.103 420.059 339.996 420.379 339.868 420.72C339.826 420.891 339.762 421.083 339.676 421.296C339.634 421.509 339.591 421.723 339.548 421.936C338.738 423.6 337.991 425.008 337.308 426.16C336.668 427.269 335.964 428.251 335.196 429.104C334.471 429.915 333.596 430.768 332.572 431.664C331.591 432.517 330.396 433.52 328.988 434.672C329.714 434.885 330.354 435.248 330.908 435.76C331.463 436.229 331.762 436.891 331.804 437.744C331.804 437.957 331.783 438.192 331.74 438.448C331.74 438.704 331.762 438.96 331.804 439.216C331.89 439.771 331.932 440.304 331.932 440.816C331.975 441.285 332.018 441.776 332.06 442.288C332.146 442.8 332.146 443.419 332.06 444.144C331.975 444.869 331.89 445.488 331.804 446C331.762 446.171 331.698 446.277 331.612 446.32C331.57 446.32 331.548 446.427 331.548 446.64C331.548 447.323 331.399 447.92 331.1 448.432C330.802 448.944 330.482 449.52 330.14 450.16C330.012 450.373 329.842 450.565 329.628 450.736C329.415 450.864 329.223 451.035 329.052 451.248C328.327 452.101 327.58 452.592 326.812 452.72C326.087 452.848 325.234 453.04 324.252 453.296L324.124 453.424C323.698 453.083 323.378 452.869 323.164 452.784C322.994 452.699 322.674 452.571 322.204 452.4C322.076 451.803 321.778 451.205 321.308 450.608C320.882 450.011 320.626 449.392 320.54 448.752C320.498 448.453 320.476 448.176 320.476 447.92C320.519 447.621 320.434 447.344 320.22 447.088C320.519 446.875 320.562 446.619 320.348 446.32C320.135 446.021 320.156 445.744 320.412 445.488C320.412 445.403 320.412 445.317 320.412 445.232C320.455 445.147 320.476 445.083 320.476 445.04C320.434 444.955 320.391 444.827 320.348 444.656C320.306 444.443 320.284 444.229 320.284 444.016ZM325.66 449.392C326.684 448.411 327.367 447.408 327.708 446.384C328.05 445.317 328.22 444.229 328.22 443.12C328.263 441.968 328.284 440.752 328.284 439.472C328.284 439.259 328.242 439.045 328.156 438.832C328.114 438.619 328.135 438.427 328.22 438.256C328.05 437.787 327.879 437.275 327.708 436.72C327.538 436.123 327.218 435.611 326.748 435.184C326.407 435.355 326.13 435.547 325.916 435.76C325.703 435.973 325.426 436.336 325.084 436.848C324.871 437.275 324.658 438.064 324.444 439.216C324.274 440.368 324.146 441.648 324.06 443.056C323.975 444.421 323.975 445.701 324.06 446.896C324.188 448.091 324.444 448.923 324.828 449.392H325.66ZM333.596 419.12C332.146 420.699 330.866 422.491 329.756 424.496C328.647 426.501 327.772 428.528 327.132 430.576L327.836 430.96L331.036 428.336C331.164 428.251 331.42 427.973 331.804 427.504C332.188 427.035 332.551 426.544 332.892 426.032C333.276 425.477 333.49 425.136 333.532 425.008C333.916 424.709 334.3 424.155 334.684 423.344C335.111 422.533 335.495 421.637 335.836 420.656C336.178 419.632 336.434 418.672 336.604 417.776C336.818 416.837 336.882 416.133 336.796 415.664L336.348 415.856C335.922 416.411 335.474 416.965 335.004 417.52C334.535 418.032 334.066 418.565 333.596 419.12ZM354.914 453.232C353.506 452.72 352.418 451.76 351.65 450.352C350.882 448.901 350.391 447.493 350.178 446.128C350.135 446.128 350.007 446.213 349.794 446.384C349.623 446.512 349.41 446.725 349.154 447.024C348.556 447.621 347.81 448.368 346.914 449.264C346.018 450.117 345.079 450.885 344.098 451.568C343.159 452.208 342.263 452.485 341.41 452.4C341.068 452.187 340.706 451.952 340.322 451.696C339.98 451.397 339.639 451.099 339.298 450.8C339.127 450.629 338.978 450.459 338.85 450.288C338.764 450.117 338.679 449.925 338.594 449.712C338.124 448.432 337.868 447.301 337.826 446.32C337.783 445.296 337.89 444.293 338.146 443.312C338.444 442.288 338.786 441.157 339.17 439.92C339.212 439.792 339.362 439.259 339.618 438.32C339.916 437.381 340.258 436.315 340.642 435.12C341.026 433.925 341.388 432.859 341.73 431.92C342.114 430.981 342.391 430.427 342.562 430.256C342.69 430.256 342.818 430.256 342.946 430.256C343.116 430.213 343.266 430.192 343.394 430.192C343.82 430.192 344.14 430.341 344.354 430.64C344.524 430.896 344.738 431.088 344.994 431.216C345.292 431.344 345.506 431.515 345.634 431.728C345.847 432.155 345.698 433.072 345.186 434.48C344.674 435.845 344.119 437.403 343.522 439.152C342.967 440.731 342.498 442.331 342.114 443.952C341.73 445.531 341.708 446.853 342.05 447.92C342.348 447.92 342.754 447.664 343.266 447.152C343.82 446.597 344.247 446.213 344.546 446C344.972 445.744 345.527 445.253 346.21 444.528C346.935 443.76 347.639 442.992 348.322 442.224C349.004 441.413 349.474 440.795 349.73 440.368C349.9 440.112 350.156 439.643 350.498 438.96C350.839 438.235 351.18 437.467 351.522 436.656C351.906 435.803 352.204 435.013 352.418 434.288C352.674 433.563 352.78 433.051 352.738 432.752C352.695 432.325 352.738 432.005 352.866 431.792C353.036 431.536 353.292 431.301 353.634 431.088C353.847 431.088 354.082 431.088 354.338 431.088C354.594 431.088 354.828 431.109 355.042 431.152C355.298 431.451 355.575 431.728 355.874 431.984C356.172 432.24 356.471 432.517 356.77 432.816C356.983 433.627 356.855 434.715 356.386 436.08C355.916 437.445 355.447 438.917 354.978 440.496C354.508 442.075 354.21 443.675 354.082 445.296C353.954 446.875 354.38 448.261 355.362 449.456C356.258 449.072 356.94 448.709 357.41 448.368C357.922 447.984 358.412 447.6 358.882 447.216C359.351 446.789 359.948 446.363 360.674 445.936C361.1 446.192 361.42 446.704 361.634 447.472C361.847 448.24 361.954 448.859 361.954 449.328C361.783 449.456 361.612 449.584 361.442 449.712C361.314 449.797 361.207 449.925 361.122 450.096C360.866 450.651 360.354 451.205 359.586 451.76C358.818 452.315 358.007 452.763 357.154 453.104C356.3 453.403 355.554 453.445 354.914 453.232ZM368.439 450.864C367.97 450.565 367.543 450.181 367.159 449.712C366.775 449.2 366.583 448.56 366.583 447.792C366.583 447.365 366.669 446.64 366.839 445.616C367.01 444.592 367.245 443.44 367.543 442.16C367.842 440.88 368.141 439.685 368.439 438.576C368.866 437.808 369.229 437.04 369.527 436.272C369.826 435.504 369.975 435.035 369.975 434.864C370.061 434.352 370.167 433.755 370.295 433.072C370.466 432.389 370.637 431.771 370.807 431.216C370.978 430.661 371.106 430.341 371.191 430.256C371.405 430.043 371.661 429.915 371.959 429.872C372.258 429.787 372.557 429.829 372.855 430C373.197 430.128 373.453 430.405 373.623 430.832C374.093 431.344 374.327 431.963 374.327 432.688C374.327 433.371 374.093 434.395 373.623 435.76C373.239 436.613 372.855 437.616 372.471 438.768C372.087 439.92 371.746 440.987 371.447 441.968C371.191 442.907 371.042 443.547 370.999 443.888L369.719 444.272C370.445 443.589 371.127 442.885 371.767 442.16C372.407 441.392 372.877 440.795 373.175 440.368C373.901 439.387 374.519 438.576 375.031 437.936C375.586 437.253 376.29 436.443 377.143 435.504C377.997 434.523 378.829 433.925 379.639 433.712C380.493 433.456 381.154 433.328 381.623 433.328C382.562 433.499 383.309 433.989 383.863 434.8C384.461 435.568 384.845 436.72 385.015 438.256C385.015 438.853 384.951 439.557 384.823 440.368C384.738 441.179 384.695 441.584 384.695 441.584C384.695 441.584 385.037 441.136 385.719 440.24C386.445 439.344 387.405 438.363 388.599 437.296C389.41 436.699 390.199 436.357 390.967 436.272C391.735 436.144 392.418 436.4 393.015 437.04C394.125 437.637 394.85 438.555 395.191 439.792C395.533 440.987 395.618 442.523 395.447 444.4C395.319 445.509 395.298 446.341 395.383 446.896C395.469 447.408 395.597 447.92 395.767 448.432C396.109 448.603 396.173 448.965 395.959 449.52C395.746 450.032 395.49 450.288 395.191 450.288C394.765 450.288 394.274 450.203 393.719 450.032C393.207 449.861 392.738 449.584 392.311 449.2C391.927 448.773 391.735 448.197 391.735 447.472V443.504C391.735 442.565 391.693 441.797 391.607 441.2C391.565 440.603 391.458 440.24 391.287 440.112C390.818 439.856 390.135 440.133 389.239 440.944C388.343 441.755 387.383 442.843 386.359 444.208C385.335 445.573 384.375 446.981 383.479 448.432C382.669 449.755 382.157 450.523 381.943 450.736C381.773 450.907 381.453 450.843 380.983 450.544C380.045 450.245 379.447 449.84 379.191 449.328C378.978 448.773 378.957 448.155 379.127 447.472C379.341 446.747 379.597 445.765 379.895 444.528C380.237 443.291 380.557 442.096 380.855 440.944C381.154 439.749 381.346 438.896 381.431 438.384C381.261 438.043 380.962 437.936 380.535 438.064C380.151 438.149 379.746 438.341 379.319 438.64C378.807 438.981 378.189 439.621 377.463 440.56C376.738 441.499 375.991 442.587 375.223 443.824C374.711 444.635 374.178 445.445 373.623 446.256C373.069 447.024 372.557 447.707 372.087 448.304C371.618 448.901 371.213 449.349 370.871 449.648C370.274 450.587 369.869 451.099 369.655 451.184C369.442 451.269 369.037 451.163 368.439 450.864ZM408.22 453.296C406.982 453.509 405.852 453.445 404.828 453.104C403.804 452.72 402.972 452.101 402.332 451.248C401.734 450.352 401.436 449.221 401.436 447.856C401.308 446.576 401.457 445.104 401.884 443.44C402.31 441.733 402.929 440.027 403.74 438.32C404.593 436.613 405.51 435.141 406.492 433.904C407.345 432.88 408.198 431.941 409.052 431.088C409.905 430.235 410.673 429.659 411.356 429.36C411.953 429.104 412.508 428.955 413.02 428.912C413.574 428.827 414.022 428.784 414.364 428.784C415.046 428.955 415.772 429.275 416.54 429.744C417.35 430.171 417.756 430.64 417.756 431.152C417.756 431.152 417.798 431.216 417.884 431.344C418.012 431.429 418.076 431.472 418.076 431.472C418.332 431.472 418.545 431.749 418.716 432.304C418.929 432.859 419.057 433.499 419.1 434.224C419.142 434.907 419.036 435.483 418.78 435.952C418.609 436.763 418.31 437.467 417.884 438.064C417.457 438.661 417.073 438.96 416.732 438.96C416.561 438.96 416.39 438.981 416.22 439.024C416.092 439.024 416.028 439.131 416.028 439.344C416.028 439.557 415.9 439.643 415.644 439.6C415.43 439.557 415.196 439.429 414.94 439.216C414.684 438.96 414.492 438.661 414.364 438.32C414.364 438.107 414.449 437.744 414.62 437.232C414.79 436.72 414.961 436.059 415.132 435.248C415.388 434.053 415.366 433.285 415.068 432.944C414.769 432.56 414.193 432.539 413.34 432.88C412.273 433.477 411.249 434.309 410.268 435.376C409.329 436.443 408.454 437.829 407.644 439.536C406.833 441.2 406.108 443.291 405.468 445.808C405.212 446.789 405.105 447.643 405.148 448.368C405.233 449.093 405.34 449.477 405.468 449.52C406.065 449.691 406.876 449.733 407.9 449.648C408.924 449.52 409.67 449.328 410.14 449.072C410.822 448.731 411.59 448.283 412.444 447.728C413.297 447.131 414.044 446.597 414.684 446.128C414.897 446 415.153 445.787 415.452 445.488C415.75 445.189 416.07 444.955 416.412 444.784C416.753 444.272 417.052 443.973 417.308 443.888C417.564 443.803 417.948 443.76 418.46 443.76C418.801 443.845 419.121 443.973 419.42 444.144C419.718 444.315 419.91 444.485 419.996 444.656C420.124 444.827 420.06 444.976 419.804 445.104C419.633 445.104 419.526 445.168 419.484 445.296C419.484 445.381 419.484 445.424 419.484 445.424C419.569 445.595 419.377 445.957 418.908 446.512C418.481 447.024 417.926 447.6 417.244 448.24C416.561 448.88 415.9 449.435 415.26 449.904C414.662 450.331 414.236 450.544 413.98 450.544C413.553 450.544 413.34 450.672 413.34 450.928C413.34 451.013 413.02 451.227 412.38 451.568C411.782 451.909 411.078 452.251 410.268 452.592C409.5 452.933 408.817 453.168 408.22 453.296ZM441.274 430.256C441.828 430.555 442.191 430.853 442.362 431.152C442.532 431.408 442.874 431.899 443.386 432.624C443.3 433.008 443.172 433.584 443.002 434.352C442.874 435.077 442.724 435.781 442.554 436.464C442.383 437.147 442.212 437.659 442.042 438C442.127 438.597 441.978 439.472 441.594 440.624C441.252 441.733 440.89 442.907 440.506 444.144C440.122 445.339 439.802 446.512 439.546 447.664C439.29 448.816 439.247 449.819 439.418 450.672C439.29 450.757 439.162 450.864 439.034 450.992C438.948 451.12 438.82 451.227 438.65 451.312C438.138 451.568 437.626 451.589 437.114 451.376C436.602 451.163 436.196 450.8 435.898 450.288C435.599 449.733 435.514 449.157 435.642 448.56C435.77 448.005 435.983 447.173 436.282 446.064C436.58 444.912 436.9 443.653 437.242 442.288C437.583 440.923 437.903 439.6 438.202 438.32C438.5 436.997 438.756 435.867 438.97 434.928C439.183 433.989 439.29 433.371 439.29 433.072C439.29 432.688 438.991 432.475 438.394 432.432C437.839 432.347 437.22 432.368 436.538 432.496C435.898 432.581 435.471 432.667 435.258 432.752C434.362 433.136 433.615 433.669 433.018 434.352C432.42 435.035 431.93 435.803 431.546 436.656C431.162 437.509 430.799 438.384 430.458 439.28C430.5 439.536 430.522 439.771 430.522 439.984C430.522 440.155 430.607 440.347 430.778 440.56C430.991 440.859 431.311 441.072 431.738 441.2C432.164 441.328 432.612 441.435 433.082 441.52C433.551 441.605 433.956 441.733 434.298 441.904C434.426 441.947 434.532 441.968 434.618 441.968C434.703 441.925 434.788 441.904 434.874 441.904C435.002 441.904 435.108 441.989 435.194 442.16C435.492 442.672 435.706 443.099 435.834 443.44C435.962 443.781 435.812 444.251 435.386 444.848C434.319 445.573 433.274 446.277 432.25 446.96C431.226 447.643 430.223 448.411 429.242 449.264C428.943 449.563 428.58 449.797 428.154 449.968C427.77 450.096 427.428 450.331 427.13 450.672C426.874 450.971 426.575 451.248 426.234 451.504C425.935 451.717 425.636 451.973 425.338 452.272C425.167 452.443 424.996 452.592 424.826 452.72C424.655 452.805 424.463 452.763 424.25 452.592C423.61 452.549 423.14 452.272 422.842 451.76C422.543 451.248 422.308 450.629 422.138 449.904C422.607 449.307 423.332 448.645 424.314 447.92C425.295 447.152 426.383 446.384 427.578 445.616C428.815 444.805 429.967 444.101 431.034 443.504C429.924 443.419 429.071 443.184 428.474 442.8C427.876 442.373 427.343 441.947 426.874 441.52C426.362 440.837 426.127 440.048 426.17 439.152C426.255 438.256 426.49 437.381 426.874 436.528C427.258 435.632 427.642 434.885 428.026 434.288C428.111 434.203 428.154 434.117 428.154 434.032C428.196 433.947 428.239 433.883 428.282 433.84C428.836 432.859 429.306 432.155 429.69 431.728C430.116 431.301 430.799 430.789 431.738 430.192C432.079 429.979 432.442 429.829 432.826 429.744C433.21 429.616 433.594 429.531 433.978 429.488C434.404 429.403 434.98 429.36 435.706 429.36C436.431 429.36 437.156 429.403 437.882 429.488C438.607 429.531 439.162 429.637 439.546 429.808C439.844 429.893 440.122 430 440.378 430.128C440.676 430.256 440.975 430.299 441.274 430.256Z" fill="black"/>
</svg>
