<svg width="657" height="542" viewBox="0 0 657 542" fill="none" xmlns="http://www.w3.org/2000/svg">
<g filter="url(#filter0_dd_54_8)">
<path fill-rule="evenodd" clip-rule="evenodd" d="M41 475.757L172.674 477.97C145.023 481.132 69.9159 478.028 41 477.539V485.558C46.2601 490.129 51.6351 488.548 60.718 492.198C77.0443 498.78 67.7027 492.514 81.442 495.848C83.8852 496.423 87.9093 495.992 92.5945 495.504C107.541 493.923 93.4568 500.39 126.253 497.803C136.371 496.998 148.443 493.348 157.986 490.014C163.533 488.059 172.013 484.524 178.94 484.581C182.763 484.61 185.177 486.881 188.281 488.318C194.318 491.135 207.942 487.772 210.098 486.564C211.276 485.558 212.282 484.552 213.346 483.46C217.514 480.614 213.863 478.574 222.285 479.522L244.188 484.15C248.47 485.242 251.575 485.731 255.742 486.766L277.07 491.824C287.705 495.216 286.354 510.536 312.108 493.06C323.433 485.386 346.514 487.743 358.357 490.617C361.978 491.508 365.571 492.629 368.675 493.492C372.642 494.584 377.816 494.325 380.661 495.705C384.024 502.747 377.931 505.075 389.802 505.822C396.154 506.225 403.139 505.966 408.025 504.816C409.261 502.23 410.813 497.199 410.957 493.664L411.446 491.048L415.125 490.416C416.332 490.502 416.591 490.818 418.028 490.531C420.615 489.956 418.747 490.502 419.753 489.611C420.529 488.49 420.931 487.8 421.592 486.967C423.288 484.926 421.995 486.536 423.23 485.357C429.353 482.052 422.972 483.46 432.342 482.483C437.602 481.937 436.51 480.097 440.477 477.453C450.508 482.77 444.443 483.086 469.565 473.084C483.908 467.392 487.788 470.066 493.307 460.264C495.175 456.901 494.945 459.459 494.198 456.154C495.204 453.222 495.664 455.464 493.02 454.544L269.137 450.894C231.282 450.175 193.312 449.686 155.571 449.083C118.607 448.508 78.7114 449.054 42.006 447.215C42.006 451.871 42.006 456.556 42.0348 461.241C42.0635 467.795 41 470.353 41 475.757Z" fill="#F7F7F7"/>
<path fill-rule="evenodd" clip-rule="evenodd" d="M42.006 445.231L497.245 452.417C497.446 452.359 497.762 452.043 497.848 452.216L523.2 445.605C527.339 444.57 532.283 442.788 536.767 442.932L566.344 446.869C574.536 448.623 588.908 460.868 594.57 469.347C601.555 469.347 608.597 468.485 613.081 469.002C619.922 469.864 625.009 470.353 632.08 470.353C632.77 468.973 633.632 466.559 634.006 465.122C634.955 461.529 635.127 462.218 634.121 459.2L634.294 456.728C626.648 456.585 598.336 457.188 593.42 455.148C594.714 453.854 591.495 453.94 597.531 453.452C598.652 453.365 602.273 453.653 603.711 453.682L636.421 452.877C636.622 452.762 636.909 452.503 637.168 452.302C638.72 451.095 636.766 453.912 638.116 450.865C638.174 450.75 639.065 448.048 639.094 447.99C640.617 443.133 644.756 434.28 643.262 429.796L643.894 426.347L42.006 416.488V445.231Z" fill="#F7F7F7"/>
<path fill-rule="evenodd" clip-rule="evenodd" d="M48.0996 49.0602L650.591 58.2293L651.109 30.5494L628.717 29.6296L48.0996 20.6329V49.0602Z" fill="#F7F7F7"/>
<path fill-rule="evenodd" clip-rule="evenodd" d="M44.0468 323.388L646.079 332.442L646.797 304.446L44.0468 294.702V323.388Z" fill="#F7F7F7"/>
<path fill-rule="evenodd" clip-rule="evenodd" d="M47.0937 109.996L649.729 119.194L650.074 91.1692L47.0937 81.4539V109.996Z" fill="#F7F7F7"/>
<path fill-rule="evenodd" clip-rule="evenodd" d="M45.0528 262.394L646.883 271.506L647.832 243.538L45.0528 233.881V262.394Z" fill="#F7F7F7"/>
<path fill-rule="evenodd" clip-rule="evenodd" d="M48.0996 79.3557L649.326 88.6973L650.591 60.6724L48.0996 50.8997V79.3557Z" fill="#F7F7F7"/>
<path fill-rule="evenodd" clip-rule="evenodd" d="M46.0588 201.343L647.688 210.541L648.78 182.573L46.0588 172.916V201.343Z" fill="#F7F7F7"/>
<path fill-rule="evenodd" clip-rule="evenodd" d="M42.006 414.734L644.268 423.702L644.814 395.879L43.0407 386.221C43.0407 390.935 43.0695 395.677 43.0695 400.42C43.0695 406.715 42.006 408.353 42.006 414.734Z" fill="#F7F7F7"/>
<path fill-rule="evenodd" clip-rule="evenodd" d="M44.0468 292.948L647.286 301.629C647.286 297.49 647.659 298.553 646.308 294.96L646.567 274.006L45.0529 264.349C45.0529 274.811 44.0468 281.968 44.0468 292.948Z" fill="#F7F7F7"/>
<path fill-rule="evenodd" clip-rule="evenodd" d="M45.0527 231.926L648.32 240.578C648.32 236.065 648.866 235.088 647.314 231.064L647.515 213.042L46.0587 203.412C46.0587 209.679 45.0814 211.058 45.0239 216.836C44.9664 221.837 45.0527 226.925 45.0527 231.926Z" fill="#F7F7F7"/>
<path fill-rule="evenodd" clip-rule="evenodd" d="M46.0588 170.99C69.1685 169.926 97.682 171.593 121.108 172.053C200.411 173.519 644.411 181.194 649.326 179.325C649.326 174.008 650.102 167.799 648.349 163.143L648.464 152.105L95.7562 143.195C93.8879 147.391 91.9046 157.337 80.4359 157.768C72.244 158.055 66.0067 150.927 65.3456 142.879H47.0935L46.0588 170.99Z" fill="#F7F7F7"/>
<path fill-rule="evenodd" clip-rule="evenodd" d="M43.0409 384.295L645.331 393.407L645.82 365.928L91.7036 356.414C88.8005 363.14 85.1213 368.917 74.4862 367.998C65.9782 367.279 63.0463 359.288 61.2642 351.729C55.573 353.051 47.5823 357.42 43.0409 357.822V384.295Z" fill="#F7F7F7"/>
<path fill-rule="evenodd" clip-rule="evenodd" d="M68.0189 131.726L72.4167 127.444C76.6132 126.897 75.2335 125.719 80.5511 125.518C84.6614 125.374 86.2135 126.179 88.5418 127.76C92.6808 130.605 95.009 135.061 95.7564 141.097L648.723 149.634L649.672 121.637L47.0937 111.893V128.68L63.8224 133.451C68.5363 134.055 66.8117 134.342 68.0189 131.726Z" fill="#F7F7F7"/>
<path fill-rule="evenodd" clip-rule="evenodd" d="M91.7034 354.546L646.28 362.594L645.274 359.834L645.733 334.943L46.0588 325.917C51.9799 331.666 57.3262 337.932 64.3109 342.588C69.341 339.225 81.5282 329.654 89.95 343.307C92.422 347.331 91.7034 348.768 91.7034 354.546Z" fill="#F7F7F7"/>
<path fill-rule="evenodd" clip-rule="evenodd" d="M48.0996 49.0602V50.8997L650.591 60.6724L649.326 88.6973L48.0996 79.3557L47.0937 81.4539L650.074 91.1692L649.729 119.194L47.0937 109.996V111.893L649.672 121.637L648.723 149.634L95.7564 141.097L95.7562 143.195L648.464 152.105L648.349 163.143C651.683 161.734 649.442 163.287 650.275 160.067C650.304 159.924 650.448 156.446 650.448 156.101C650.333 143.396 649.614 106.145 650.764 98.6713C653.437 81.4252 648.378 46.7606 652 32.3601L650.936 29.9457L628.717 29.6296L651.109 30.5494L650.591 58.2293L48.0996 49.0602Z" fill="#B9B9BA"/>
<path fill-rule="evenodd" clip-rule="evenodd" d="M44.0468 294.702L646.797 304.446L646.079 332.442L44.0468 323.388L46.0588 325.917L645.733 334.943L645.274 359.834C649.556 358.052 645.762 360.783 646.941 357.621C647.918 354.948 647.286 305.021 647.286 301.629L44.0468 292.948V294.702Z" fill="#B9B9BA"/>
<path fill-rule="evenodd" clip-rule="evenodd" d="M45.0528 233.881L647.832 243.538L646.883 271.506L45.0528 262.394L45.0529 264.349L646.567 274.006L646.308 294.96C649.384 293.638 648.033 295.535 648.464 289.959C648.579 288.407 648.32 284.641 648.32 282.773L648.32 240.578L45.0527 231.926L45.0528 233.881Z" fill="#B9B9BA"/>
<path fill-rule="evenodd" clip-rule="evenodd" d="M91.7036 356.414L645.82 365.928L645.331 393.407L43.0409 384.295L43.0407 386.221L644.814 395.879L644.268 423.702C645.676 423.127 646.28 425.254 646.424 417.695C646.481 415.194 646.28 412.147 646.28 409.532L646.28 362.594L91.7034 354.546L91.7036 356.414Z" fill="#B9B9BA"/>
<path fill-rule="evenodd" clip-rule="evenodd" d="M46.0588 172.916L648.78 182.573L647.688 210.541L46.0588 201.343L46.0587 203.412L647.515 213.042L647.314 231.064C650.419 229.77 649.039 231.725 649.47 226.091L649.326 179.325C644.411 181.194 200.411 173.519 121.108 172.053C97.682 171.593 69.1685 169.926 46.0588 170.99V172.916Z" fill="#B9B9BA"/>
<path fill-rule="evenodd" clip-rule="evenodd" d="M42.006 416.488L643.894 426.347L643.262 429.796C646.969 428.244 644.296 430.716 644.9 427.583C645.705 423.329 645.101 425.801 644.268 423.702L42.006 414.734V416.488Z" fill="#B9B9BA"/>
<path fill-rule="evenodd" clip-rule="evenodd" d="M48.0996 18.7071V20.6329L628.717 29.6296L650.936 29.9457L652 32.3601L652.373 16.4076C650.85 19.8856 651.252 23.306 651.252 27.8475L48.0996 18.7071Z" fill="#D2816E"/>
<path fill-rule="evenodd" clip-rule="evenodd" d="M42.006 447.215C78.7114 449.054 118.607 448.508 155.571 449.083C193.312 449.686 231.282 450.175 269.137 450.894L493.02 454.544C495.664 455.464 495.204 453.222 494.198 456.154C494.371 456.096 496.555 455.723 497.245 455.148V452.417L42.006 445.231L42.006 447.215Z" fill="#B9B9BA"/>
<path fill-rule="evenodd" clip-rule="evenodd" d="M421.966 482.396C418.66 480.183 309.579 479.637 290.407 479.378C276.926 479.206 259.077 477.999 246.171 479.033C248.614 479.091 251.201 480.471 254.276 480.873L288.395 481.678C303.342 481.908 318.173 482.253 333.005 481.678C346.83 481.16 415.585 486.507 421.966 482.396Z" fill="#B9B9BA"/>
<path fill-rule="evenodd" clip-rule="evenodd" d="M41 477.539C69.9159 478.028 145.023 481.132 172.674 477.97L41 475.757V477.539Z" fill="#B9B9BA"/>
<path fill-rule="evenodd" clip-rule="evenodd" d="M634.121 459.2C636.679 457.505 635.386 459.545 636.593 456.585C637.599 454.113 636.967 455.234 637.168 452.302C636.909 452.503 636.622 452.762 636.421 452.877L603.711 453.682C602.273 453.653 598.652 453.365 597.531 453.452C591.495 453.94 594.714 453.854 593.42 455.148C598.336 457.188 626.648 456.585 634.294 456.728L634.121 459.2Z" fill="#B9B9BA"/>
<path fill-rule="evenodd" clip-rule="evenodd" d="M207.109 478.459L175.002 477.711C180.176 480.787 183.424 479.925 190.035 480.04C194.461 480.126 204.867 482.023 207.109 478.459Z" fill="#B9B9BA"/>
<path fill-rule="evenodd" clip-rule="evenodd" d="M419.753 489.611C422.943 487.944 422.253 489.41 423.23 485.357C421.995 486.536 423.288 484.926 421.592 486.967C420.931 487.8 420.529 488.49 419.753 489.611Z" fill="#AD8D6D"/>
<path fill-rule="evenodd" clip-rule="evenodd" d="M410.957 493.664C411.129 493.492 411.417 493.003 411.503 493.175L415.125 490.416L411.446 491.048L410.957 493.664Z" fill="#AD8D6D"/>
<path fill-rule="evenodd" clip-rule="evenodd" d="M210.098 486.564C213.346 485.788 212.483 486.794 213.346 483.46C212.282 484.552 211.276 485.558 210.098 486.564Z" fill="#AD8D6D"/>
<path d="M49.2531 6C49.1245 10.5617 48.8006 14.899 48.0996 18.7071L651.252 27.8475C651.252 27.033 651.239 26.2545 651.227 25.5054C651.17 22.0772 651.123 19.2618 652.373 16.4076C652.373 12.937 652.372 9.46798 652.369 6H49.2531Z" fill="#F7F7F7"/>
</g>
<defs>
<filter id="filter0_dd_54_8" x="0.4" y="0.4" width="655.974" height="541.2" filterUnits="userSpaceOnUse" color-interpolation-filters="sRGB">
<feFlood flood-opacity="0" result="BackgroundImageFix"/>
<feColorMatrix in="SourceAlpha" type="matrix" values="0 0 0 0 0 0 0 0 0 0 0 0 0 0 0 0 0 0 127 0" result="hardAlpha"/>
<feOffset dx="-20" dy="15"/>
<feGaussianBlur stdDeviation="10.3"/>
<feComposite in2="hardAlpha" operator="out"/>
<feColorMatrix type="matrix" values="0 0 0 0 0 0 0 0 0 0 0 0 0 0 0 0 0 0 0.25 0"/>
<feBlend mode="normal" in2="BackgroundImageFix" result="effect1_dropShadow_54_8"/>
<feColorMatrix in="SourceAlpha" type="matrix" values="0 0 0 0 0 0 0 0 0 0 0 0 0 0 0 0 0 0 127 0" result="hardAlpha"/>
<feOffset dy="4"/>
<feGaussianBlur stdDeviation="2"/>
<feComposite in2="hardAlpha" operator="out"/>
<feColorMatrix type="matrix" values="0 0 0 0 0 0 0 0 0 0 0 0 0 0 0 0 0 0 0.09 0"/>
<feBlend mode="normal" in2="effect1_dropShadow_54_8" result="effect2_dropShadow_54_8"/>
<feBlend mode="normal" in="SourceGraphic" in2="effect2_dropShadow_54_8" result="shape"/>
</filter>
</defs>
</svg>
